<?xml version="1.0" standalone="no"?>
<!DOCTYPE svg PUBLIC "-//W3C//DTD SVG 20010904//EN"
 "http://www.w3.org/TR/2001/REC-SVG-20010904/DTD/svg10.dtd">
<svg version="1.0" xmlns="http://www.w3.org/2000/svg"
 width="164.000000pt" height="194.000000pt" viewBox="0 0 164.000000 194.000000"
 preserveAspectRatio="xMidYMid meet">
<metadata>
Created by potrace 1.16, written by Peter Selinger 2001-2019
</metadata>
<g transform="translate(0.000000,194.000000) scale(0.100000,-0.100000)"
fill="#ffffff" stroke="none">
<path d="M647 1920 c-58 -12 -125 -37 -195 -71 -96 -46 -117 -62 -207 -153
-83 -83 -109 -117 -147 -191 -60 -116 -88 -215 -95 -337 -28 -473 343 -868
817 -868 223 0 422 83 581 241 149 150 239 364 239 570 l0 69 -270 0 -270 0 0
155 0 155 -35 0 -35 0 0 -155 0 -155 -210 0 -210 0 0 155 0 155 -35 0 -35 0 2
-372 3 -373 30 0 30 0 3 183 2 182 210 0 210 0 0 -186 0 -185 33 3 32 3 3 183
2 182 235 0 235 0 0 -42 c0 -24 -9 -80 -20 -124 -83 -349 -370 -574 -730 -574
-351 0 -629 210 -726 549 -24 85 -26 104 -22 224 8 218 66 355 213 502 92 92
177 145 290 181 330 104 670 -2 850 -266 27 -38 54 -70 60 -70 6 0 20 6 30 14
18 13 17 15 -10 61 -43 74 -170 200 -252 252 -177 110 -396 147 -606 103z
M433 130 c-46 -19 -55 -69 -18 -105 29 -30 58 -32 85 -5 28 28 26 50 -5 50
-14 0 -25 -4 -25 -10 0 -5 8 -10 17 -10 16 0 16 -1 1 -16 -23 -24 -66 -11 -74
22 -11 44 43 83 74 52 6 -6 15 -9 19 -5 18 19 -41 40 -74 27z M885 128 c-28
-16 -35 -28 -35 -65 0 -54 68 -84 103 -45 25 28 22 52 -8 52 -14 0 -25 -4 -25
-10 0 -5 7 -10 15 -10 25 0 17 -19 -12 -26 -20 -6 -31 -2 -45 16 -23 28 -22
32 1 61 17 22 22 23 50 12 34 -12 43 0 12 17 -24 12 -31 12 -56 -2z M40 65 c0
-67 16 -91 22 -32 2 27 7 32 28 32 21 0 26 -5 28 -32 6 -59 22 -35 22 32 0 37
-4 65 -10 65 -5 0 -10 -11 -10 -25 0 -21 -5 -25 -30 -25 -25 0 -30 4 -30 25 0
14 -4 25 -10 25 -6 0 -10 -28 -10 -65z M260 65 c0 -37 4 -65 10 -65 6 0 10 28
10 65 0 37 -4 65 -10 65 -6 0 -10 -28 -10 -65z M630 71 c0 -64 17 -93 22 -39
2 28 7 33 28 33 19 0 26 -6 28 -25 8 -56 22 -41 22 23 0 38 -4 67 -10 67 -5 0
-10 -12 -10 -26 0 -22 -4 -25 -27 -22 -20 2 -29 9 -31 26 -7 46 -22 20 -22
-37z M1096 69 c-15 -34 -24 -64 -21 -68 4 -3 11 2 16 12 13 23 65 23 78 0 5
-10 12 -15 16 -12 7 8 -45 129 -55 129 -4 0 -19 -28 -34 -61z m48 5 c9 -23 8
-24 -13 -24 -14 0 -18 5 -14 20 6 24 19 26 27 4z M1293 119 c13 -8 17 -23 17
-65 0 -34 4 -53 10 -49 6 3 10 30 10 60 0 43 4 54 18 58 9 3 -3 5 -28 6 -35 0
-41 -2 -27 -10z M1470 65 l0 -65 29 0 c39 0 50 18 14 22 -37 4 -39 39 -3 49
l25 6 -25 4 c-35 6 -32 32 5 40 29 6 29 7 -7 8 l-38 1 0 -65z"/>
</g>
</svg>
